<svg version="1.1" viewBox="0.0 0.0 960.0 720.0" fill="none" stroke="none" stroke-linecap="square" stroke-miterlimit="10" xmlns:xlink="http://www.w3.org/1999/xlink" xmlns="http://www.w3.org/2000/svg"><clipPath id="p.0"><path d="m0 0l960.0 0l0 720.0l-960.0 0l0 -720.0z" clip-rule="nonzero"/></clipPath><g clip-path="url(#p.0)"><path fill="#000000" fill-opacity="0.0" d="m0 0l960.0 0l0 720.0l-960.0 0z" fill-rule="evenodd"/><path fill="#000000" fill-opacity="0.0" d="m-110.67454 47.43307l700.53546 0l0 81.732285l-700.53546 0z" fill-rule="evenodd"/><path fill="#ffffff" d="m-1.2152231 -1.3018373l960.0 0l0 720.0l-960.0 0z" fill-rule="evenodd"/><path stroke="#000000" stroke-width="1.0" stroke-linejoin="round" stroke-linecap="butt" d="m-1.2152231 -1.3018373l960.0 0l0 720.0l-960.0 0z" fill-rule="evenodd"/><path fill="#cccccc" d="m23.110237 26.860893l276.09448 0l0 198.04724l-276.09448 0z" fill-rule="evenodd"/><path stroke="#000000" stroke-width="1.0" stroke-linejoin="round" stroke-linecap="butt" d="m23.110237 26.860893l276.09448 0l0 198.04724l-276.09448 0z" fill-rule="evenodd"/><path fill="#cccccc" d="m659.38055 26.860893l276.09448 0l0 198.04724l-276.09448 0z" fill-rule="evenodd"/><path stroke="#000000" stroke-width="1.0" stroke-linejoin="round" stroke-linecap="butt" d="m659.38055 26.860893l276.09448 0l0 198.04724l-276.09448 0z" fill-rule="evenodd"/><path fill="#cccccc" d="m341.95145 26.860893l276.0945 0l0 198.04724l-276.0945 0z" fill-rule="evenodd"/><path stroke="#000000" stroke-width="1.0" stroke-linejoin="round" stroke-linecap="butt" d="m341.95145 26.860893l276.0945 0l0 198.04724l-276.0945 0z" fill-rule="evenodd"/><path fill="#cccccc" d="m22.094488 258.69815l276.09448 0l0 198.04724l-276.09448 0z" fill-rule="evenodd"/><path stroke="#000000" stroke-width="1.0" stroke-linejoin="round" stroke-linecap="butt" d="m22.094488 258.69815l276.09448 0l0 198.04724l-276.09448 0z" fill-rule="evenodd"/><path fill="#cccccc" d="m340.73752 260.97638l276.0945 0l0 198.04724l-276.0945 0z" fill-rule="evenodd"/><path stroke="#000000" stroke-width="1.0" stroke-linejoin="round" stroke-linecap="butt" d="m340.73752 260.97638l276.0945 0l0 198.04724l-276.0945 0z" fill-rule="evenodd"/><path fill="#cccccc" d="m659.38055 259.67453l276.09448 0l0 198.04724l-276.09448 0z" fill-rule="evenodd"/><path stroke="#000000" stroke-width="1.0" stroke-linejoin="round" stroke-linecap="butt" d="m659.38055 259.67453l276.09448 0l0 198.04724l-276.09448 0z" fill-rule="evenodd"/><path fill="#cccccc" d="m660.7953 492.4882l276.09448 0l0 198.04727l-276.09448 0z" fill-rule="evenodd"/><path stroke="#000000" stroke-width="1.0" stroke-linejoin="round" stroke-linecap="butt" d="m660.7953 492.4882l276.09448 0l0 198.04727l-276.09448 0z" fill-rule="evenodd"/><path fill="#cccccc" d="m341.95276 490.53543l276.09448 0l0 198.04727l-276.09448 0z" fill-rule="evenodd"/><path stroke="#000000" stroke-width="1.0" stroke-linejoin="round" stroke-linecap="butt" d="m341.95276 490.53543l276.09448 0l0 198.04727l-276.09448 0z" fill-rule="evenodd"/><path fill="#cccccc" d="m23.110237 490.53543l276.09448 0l0 198.04727l-276.09448 0z" fill-rule="evenodd"/><path stroke="#000000" stroke-width="1.0" stroke-linejoin="round" stroke-linecap="butt" d="m23.110237 490.53543l276.09448 0l0 198.04727l-276.09448 0z" fill-rule="evenodd"/></g></svg>